<?xml version='1.0' encoding='iso-8859-1'?>
<!DOCTYPE svg PUBLIC '-//W3C//DTD SVG 1.1//EN' 'http://www.w3.org/Graphics/SVG/1.1/DTD/svg11.dtd'>
<svg version="1.1" xmlns="http://www.w3.org/2000/svg" viewBox="0 0 310.709 310.709" xmlns:xlink="http://www.w3.org/1999/xlink" enable-background="new 0 0 310.709 310.709">
  <g>
    <path d="m287.365,7.878c-4.252-5.007-10.461-7.878-17.034-7.878h-229.952c-6.565,0-12.771,2.872-17.027,7.882-4.261,5.018-6.09,11.613-5.02,18.096 3.095,18.719 12.746,36.591 27.911,51.682 7.964,7.924 18.536,12.288 29.771,12.288h158.683c11.234,0 21.807-4.364 29.771-12.288 15.165-15.092 24.816-32.963 27.909-51.681 1.072-6.488-0.753-13.084-5.012-18.101zm-40.533,52.06c-3.246,3.229-7.556,5.009-12.136,5.009h-158.683c-4.58,0-8.89-1.779-12.136-5.009-10.55-10.499-17.515-22.518-20.279-34.938h223.512c-2.764,12.42-9.728,24.439-20.278,34.938z"/>
    <path d="m243.145,110.128h-175.581c-6.903,0-12.5,5.597-12.5,12.5v175.581c0,6.903 5.597,12.5 12.5,12.5h175.581c6.903,0 12.5-5.597 12.5-12.5v-175.581c2.84217e-14-6.903-5.597-12.5-12.5-12.5zm-12.5,175.581h-150.581v-150.581h150.581v150.581z"/>
    <path d="m155.355,272.659c34.32,0 62.241-27.921 62.241-62.241s-27.921-62.241-62.241-62.241-62.241,27.921-62.241,62.241 27.921,62.241 62.241,62.241zm0-99.482c1.578,0 3.129,0.11 4.656,0.301l-15.813,31.304c-3.112,6.162-0.641,13.681 5.521,16.793 1.807,0.913 3.73,1.346 5.626,1.346 4.566,0 8.968-2.512 11.167-6.867l15.804-31.286c6.362,6.684 10.28,15.715 10.28,25.65 0,20.535-16.706,37.241-37.241,37.241s-37.241-16.706-37.241-37.241 16.706-37.241 37.241-37.241z"/>
  </g>
</svg>
